<svg xmlns="http://www.w3.org/2000/svg" viewBox="0 0 28 37.42"><defs><style>.cls-1{fill:#00a4e0;}</style></defs><title>password-icon-active</title><g id="Layer_2" data-name="Layer 2"><g id="Layer_1-2" data-name="Layer 1"><path class="cls-1" d="M12.92,37.42h2.15a12.91,12.91,0,0,0,9.15-22V10.34a10.23,10.23,0,1,0-20.46,0V15.4a12.91,12.91,0,0,0,9.15,22ZM14,1a9.2,9.2,0,0,1,9.15,9.26v4.09a12.83,12.83,0,0,0-8.08-2.85H12.92a12.83,12.83,0,0,0-8.08,2.85V10.28A9.24,9.24,0,0,1,14,1ZM12.92,12.65h2.15a11.85,11.85,0,0,1,0,23.69H12.92a11.85,11.85,0,0,1,0-23.69Z"/><rect class="cls-1" x="13.46" y="25.58" width="1.08" height="4.31"/></g></g></svg>