<svg xmlns="http://www.w3.org/2000/svg" viewBox="0 0 32.34 34.07"><defs><style>.cls-1{opacity:0.5;}</style></defs><title>user-icon</title><g id="Layer_2" data-name="Layer 2"><g id="Layer_1-2" data-name="Layer 1"><g class="cls-1"><path d="M0,33.49a.55.55,0,0,0,.58.58.55.55,0,0,0,.58-.58V31.76A15.62,15.62,0,0,1,11.32,17.15a9.16,9.16,0,0,0,4.85,1.39A9.31,9.31,0,0,0,21,17.15,15.62,15.62,0,0,1,31.18,31.76v1.73a.58.58,0,1,0,1.15,0V31.76A16.8,16.8,0,0,0,22.12,16.34,9.25,9.25,0,1,0,6.93,9.24a9.12,9.12,0,0,0,3.29,7A17,17,0,0,0,0,31.76ZM8.08,9.24a8.08,8.08,0,1,1,8.08,8.08A8.11,8.11,0,0,1,8.08,9.24Z"/></g></g></g></svg>